<svg xmlns="http://www.w3.org/2000/svg" width="45" height="45" viewBox="0 0 45 45" fill="none"><path d="M22.5 0.041626C34.9034 0.041626 44.9584 10.0966 44.9584 22.5C44.9584 34.9034 34.9034 44.9583 22.5 44.9583C10.0966 44.9583 0.041687 34.9034 0.041687 22.5C0.041687 10.0966 10.0966 0.041626 22.5 0.041626ZM22.5 4.12496C12.3518 4.12496 4.12502 12.3517 4.12502 22.5C4.12502 32.6482 12.3518 40.875 22.5 40.875C32.6483 40.875 40.875 32.6482 40.875 22.5C40.875 12.3517 32.6483 4.12496 22.5 4.12496ZM29.6459 27.6041C31.1636 27.6041 32.1507 29.2013 31.472 30.5589C31.1094 31.2839 30.4215 32.2551 29.3434 33.2134C27.5513 34.8064 25.2609 35.7708 22.5 35.7708C19.7392 35.7708 17.4487 34.8064 15.6566 33.2134C14.5785 32.2551 13.8906 31.2839 13.5281 30.5589C12.8493 29.2013 13.8364 27.6041 15.3542 27.6041H29.6459ZM29.6459 14.3333C30.6929 14.3333 31.5558 15.1215 31.6738 16.1369L31.6875 16.375V20.4583C31.6875 21.5859 30.7734 22.5 29.6459 22.5C28.5988 22.5 27.7359 21.7118 27.6179 20.6964L27.6042 20.4583V16.375C27.6042 15.2474 28.5183 14.3333 29.6459 14.3333ZM15.3542 14.3333C16.4012 14.3333 17.2642 15.1215 17.3821 16.1369L17.3959 16.375V20.4583C17.3959 21.5859 16.4818 22.5 15.3542 22.5C14.3071 22.5 13.4442 21.7118 13.3263 20.6964L13.3125 20.4583V16.375C13.3125 15.2474 14.2266 14.3333 15.3542 14.3333Z" fill="#EFDD59"></path></svg>