<svg xmlns="http://www.w3.org/2000/svg" width="27" height="39" viewBox="0 0 27 39" fill="none"><path d="M19.2857 39H7.71429V35.1H19.2857V39ZM19.2857 33.15H7.71429L7.28421 29.25C7.05285 27.96 6.67022 26.7025 6.14443 25.5041C5.46171 24.5291 4.75007 23.6964 4.06157 22.8832C1.53151 20.4853 0.0668274 17.1557 0 13.65C0 6.11131 6.04416 0 13.5 0C20.9558 0 27 6.11131 27 13.65C26.9215 17.1343 25.4681 20.4421 22.9635 22.8365L22.9307 22.8755C22.2441 23.6886 21.5344 24.531 20.8652 25.4963C20.3399 26.6979 19.956 27.9578 19.7216 29.25L19.2857 33.15ZM13.5 3.9C8.17704 3.90645 3.86352 8.2679 3.85714 13.65C3.85714 16.6608 5.09914 18.1214 6.97757 20.3346C7.69114 21.177 8.50114 22.1286 9.29186 23.2421C10.2515 25.1274 10.9071 27.1556 11.2339 29.25H15.768C16.1033 27.1616 16.7578 25.1387 17.7081 23.2538C18.4796 22.1403 19.2876 21.1828 19.9993 20.3405L20.0282 20.3054C21.9028 18.0824 23.1429 16.614 23.1429 13.65C23.1365 8.2679 18.823 3.90645 13.5 3.9Z" fill="#EFDD59"></path></svg>