<svg xmlns="http://www.w3.org/2000/svg" width="52" height="60" viewBox="0 0 52 60" fill="none"><path d="M45.3103 60H6.4729C2.89802 60 0 57.3137 0 54V6.00002C0 2.68633 2.89802 1.85224e-05 6.4729 1.85224e-05H29.1281C29.987 -0.0027898 30.8113 0.313851 31.4162 0.879037L50.835 18.879C51.4447 19.4398 51.7863 20.2038 51.7832 21V54C51.7832 57.3137 48.8852 60 45.3103 60ZM6.4729 6.00003V54H40.734L32.4293 46.302C30.4555 47.405 28.1963 47.9918 25.8916 48C19.9404 48.0597 14.6951 44.3901 13.1253 39.0687C11.5555 33.7474 14.0565 28.1143 19.2124 25.3586C24.3683 22.603 30.8807 23.4188 35.0626 27.3441C39.2445 31.2694 40.0428 37.3158 37.0056 42.06L45.3103 49.764V22.242L27.7882 6.00003H6.4729ZM25.8916 30C22.3167 30 19.4187 32.6863 19.4187 36C19.4187 39.3137 22.3167 42 25.8916 42C29.4665 42 32.3645 39.3137 32.3645 36C32.3645 32.6863 29.4665 30 25.8916 30Z" fill="#EFDD59"></path></svg>