<svg width="195" height="53" viewBox="0 0 195 53" fill="none" xmlns="http://www.w3.org/2000/svg">
<path d="M187.405 52.2066C186.305 52.2679 185.203 52.2679 184.104 52.2066C182.955 52.0806 181.899 51.4947 181.159 50.5734C180.42 49.6521 180.055 48.4679 180.143 47.2721C180.229 46.0888 180.745 44.9837 181.586 44.1802C182.427 43.3766 183.531 42.9346 184.674 42.9435C186.557 42.9435 188.44 42.9435 190.323 42.9435C191.437 42.954 192.508 43.3935 193.327 44.1768C194.147 44.9601 194.657 46.0314 194.759 47.1831C194.862 48.3348 194.548 49.4848 193.88 50.4102C193.212 51.3357 192.237 51.9707 191.143 52.1922C190.825 52.2535 190.501 52.2825 190.177 52.2787C189.253 52.2787 188.329 52.2787 187.398 52.2787L187.405 52.2066ZM190.261 50.6988C191.037 50.6683 191.773 50.3285 192.314 49.7499C192.856 49.1713 193.162 48.3985 193.169 47.5917C193.176 46.785 192.884 46.0064 192.353 45.4176C191.821 44.8288 191.092 44.475 190.316 44.4296C189.514 44.4258 188.744 44.7513 188.172 45.3351C187.601 45.919 187.275 46.7138 187.266 47.5462C187.258 48.3722 187.566 49.1676 188.122 49.7585C188.678 50.3493 189.437 50.6874 190.233 50.6988H190.261Z" fill="url(#paint0_linear)"/>
<path d="M3.16185 49.9263L5.24659 44.0684H6.28896L3.5788 51.2177H2.68931L0 44.0684H1.07016L3.16185 49.9263Z" fill="url(#paint1_linear)"/>
<path d="M10.0348 50.3303H13.6344V51.2177H9.06885V44.0684H13.4885V44.9413H10.0139V47.1056H13.2592V47.9641H10.0139L10.0348 50.3303Z" fill="url(#paint2_linear)"/>
<path d="M21.7164 49.782V44.0684H22.7101V51.2177H21.494L17.8457 45.3813V51.2177H16.8867V44.0684H18.1376L21.7164 49.782Z" fill="url(#paint3_linear)"/>
<path d="M26.3164 44.0684H28.6861C29.1333 44.0688 29.5781 44.1369 30.0064 44.2704C30.4408 44.3993 30.8468 44.6149 31.2017 44.9052C31.5665 45.2046 31.8632 45.5839 32.0703 46.0162C32.3026 46.5224 32.4146 47.079 32.3969 47.6394C32.4182 48.1564 32.3209 48.6712 32.1132 49.1416C31.9054 49.6119 31.593 50.0243 31.2017 50.3448C30.8443 50.6361 30.4395 50.8585 30.0064 51.0013C29.5795 51.1428 29.1342 51.2158 28.6861 51.2177H26.3164V44.0684ZM27.2823 50.3376H28.4915C28.8806 50.3427 29.2679 50.2818 29.6381 50.1572C29.9743 50.0462 30.2861 49.8672 30.5554 49.6306C30.8153 49.3986 31.0199 49.1072 31.153 48.7793C31.3028 48.4198 31.3763 48.031 31.3684 47.6394C31.3777 47.2383 31.3042 46.8399 31.153 46.4707C31.0214 46.1439 30.8165 45.8545 30.5554 45.6266C30.284 45.3949 29.9727 45.2186 29.6381 45.1072C29.2667 44.9887 28.88 44.9303 28.4915 44.9341H27.2823V50.3376Z" fill="url(#paint4_linear)"/>
<path d="M35.7186 51.2177H34.6484L37.6366 44.0684H38.5122L41.4656 51.2177H40.3745L39.6796 49.4574H36.4066L35.7186 51.2177ZM36.7471 48.5773H39.3252L38.0396 45.2298L36.7471 48.5773Z" fill="url(#paint5_linear)"/>
<path d="M49.464 50.3303H53.0636V51.2177H48.498V44.0684H52.9177V44.9413H49.4431V47.1056H52.6953V47.9641H49.464V50.3303Z" fill="url(#paint6_linear)"/>
<path d="M60.7777 51.2177H59.7075L62.6956 44.0684H63.5712L66.5316 51.2177H65.4406L64.7456 49.4574H61.4795L60.7777 51.2177ZM61.8131 48.5773H64.4051L63.1195 45.2298L61.8131 48.5773Z" fill="url(#paint7_linear)"/>
<path d="M70.3253 50.3303H73.3968V51.2177H69.3594V44.0684H70.3253V50.3303Z" fill="url(#paint8_linear)"/>
<path d="M78.6715 51.3981C78.2636 51.4071 77.8586 51.3259 77.4832 51.16C77.1639 51.0174 76.8791 50.803 76.6493 50.5323C76.4268 50.2675 76.2589 49.9581 76.1559 49.6233C76.0505 49.2829 75.9966 48.9276 75.9961 48.5701V44.0684H76.9551V48.5124C76.9578 48.7557 76.9881 48.9978 77.0454 49.2338C77.1 49.4647 77.1967 49.6827 77.3303 49.8758C77.4699 50.068 77.6507 50.2236 77.8585 50.3303C78.3772 50.5512 78.9589 50.5512 79.4776 50.3303C79.6865 50.2255 79.8678 50.0695 80.0058 49.8758C80.1388 49.6814 80.2376 49.464 80.2976 49.2338C80.3527 48.9976 80.3807 48.7554 80.381 48.5124V44.0684H81.3469V48.5701C81.3465 48.9276 81.2925 49.2829 81.1871 49.6233C81.0813 49.9568 80.9137 50.2657 80.6937 50.5323C80.4611 50.7998 80.177 51.0136 79.8598 51.16C79.4845 51.3259 79.0794 51.4071 78.6715 51.3981Z" fill="url(#paint9_linear)"/>
<path d="M90.1167 45.5401C89.8963 45.2936 89.6256 45.1013 89.3245 44.9774C88.9837 44.829 88.617 44.7553 88.2474 44.7609C87.8743 44.7564 87.5046 44.8352 87.1633 44.9918C86.8468 45.1324 86.5643 45.3443 86.3364 45.6122C86.1054 45.8769 85.926 46.1856 85.8082 46.5212C85.5583 47.2417 85.5583 48.03 85.8082 48.7504C85.9243 49.0891 86.1038 49.4005 86.3364 49.6666C86.5678 49.9319 86.8525 50.1413 87.1703 50.2799C87.5233 50.4282 87.9013 50.5018 88.2821 50.4963C88.5807 50.4985 88.8787 50.4695 89.1716 50.4097C89.414 50.3544 89.6479 50.2645 89.8666 50.1428V48.1589H88.3377V47.3076H90.8116V50.7704C90.4366 50.9791 90.0372 51.1367 89.6233 51.2394C89.1671 51.3453 88.701 51.3985 88.2335 51.3981C87.7273 51.4037 87.2248 51.3082 86.7533 51.1167C86.3185 50.947 85.923 50.684 85.5928 50.3448C85.265 50.0014 85.0053 49.5945 84.8284 49.1472C84.6434 48.6655 84.5513 48.1508 84.5574 47.6322C84.553 47.1085 84.6474 46.5889 84.8354 46.1028C85.0114 45.6575 85.274 45.2548 85.6067 44.9197C85.9413 44.588 86.3357 44.3281 86.7672 44.1549C87.2328 43.9693 87.7279 43.8763 88.2266 43.8808C88.7282 43.8735 89.227 43.959 89.6998 44.1333C90.0981 44.284 90.4641 44.5144 90.7769 44.8114L90.1167 45.5401Z" fill="url(#paint10_linear)"/>
<path d="M97.0656 51.3981C96.6576 51.4077 96.2524 51.3265 95.8773 51.16C95.558 51.0174 95.2732 50.803 95.0434 50.5323C94.8209 50.2675 94.653 49.9581 94.55 49.6233C94.4445 49.2829 94.3906 48.9276 94.3901 48.5701V44.0684H95.3491V48.5124C95.3518 48.7557 95.3821 48.9978 95.4395 49.2338C95.4941 49.4647 95.5908 49.6827 95.7244 49.8758C95.8639 50.068 96.0447 50.2236 96.2525 50.3303C96.7712 50.5512 97.3529 50.5512 97.8717 50.3303C98.0806 50.2255 98.2618 50.0695 98.3998 49.8758C98.5328 49.6814 98.6316 49.464 98.6917 49.2338C98.7468 48.9976 98.7748 48.7554 98.775 48.5124V44.0684H99.741V48.5701C99.7405 48.9276 99.6866 49.2829 99.5811 49.6233C99.4754 49.9568 99.3078 50.2657 99.0878 50.5323C98.8552 50.7998 98.5711 51.0136 98.2539 51.16C97.8785 51.3259 97.4734 51.4071 97.0656 51.3981Z" fill="url(#paint11_linear)"/>
<path d="M104.265 50.3303H107.865V51.2177H103.32V44.0684H107.733V44.9413H104.258V47.1056H107.489V47.9641H104.237L104.265 50.3303Z" fill="url(#paint12_linear)"/>
<path d="M112.062 50.3303H115.134V51.2177H111.096V44.0684H112.062V50.3303Z" fill="url(#paint13_linear)"/>
<path d="M128.066 50.1069C127.783 50.4962 127.42 50.8143 127.003 51.0375C126.517 51.2881 125.981 51.4119 125.439 51.3982C124.94 51.4038 124.444 51.3082 123.98 51.1168C123.55 50.9454 123.159 50.6824 122.833 50.3449C122.509 50.0008 122.254 49.5939 122.083 49.1473C121.892 48.6671 121.797 48.1517 121.805 47.6324C121.8 47.1086 121.895 46.589 122.083 46.1029C122.259 45.6577 122.521 45.2549 122.854 44.9198C123.189 44.5881 123.583 44.3282 124.014 44.1551C124.48 43.9708 124.975 43.8778 125.474 43.8809C125.707 43.8843 125.939 43.9085 126.169 43.9531C126.407 43.9989 126.64 44.0715 126.864 44.1695C127.077 44.2619 127.279 44.378 127.468 44.5158C127.645 44.6501 127.802 44.8105 127.934 44.9919L127.176 45.5979C126.992 45.346 126.754 45.1412 126.481 44.9991C126.17 44.8408 125.827 44.7594 125.481 44.7611C125.108 44.7559 124.738 44.8347 124.397 44.9919C124.083 45.1347 123.803 45.3463 123.577 45.6124C123.346 45.8771 123.166 46.1858 123.048 46.5214C122.925 46.8776 122.864 47.2538 122.868 47.6324C122.863 48.0181 122.924 48.4016 123.048 48.765C123.159 49.1011 123.334 49.4104 123.563 49.674C123.789 49.9356 124.066 50.1445 124.376 50.2872C124.716 50.4381 125.083 50.5142 125.453 50.5108C125.821 50.517 126.185 50.4329 126.516 50.2656C126.833 50.0985 127.103 49.8501 127.301 49.5441L128.066 50.1069Z" fill="url(#paint14_linear)"/>
<path d="M137.822 47.632C137.826 48.1511 137.732 48.6658 137.544 49.147C137.368 49.5943 137.108 50.0012 136.78 50.3446C136.449 50.6823 136.053 50.9451 135.619 51.1165C134.683 51.4918 133.645 51.4918 132.708 51.1165C132.277 50.9433 131.884 50.6807 131.554 50.3446C131.228 50.0009 130.971 49.594 130.797 49.147C130.612 48.6653 130.52 48.1506 130.526 47.632C130.519 47.1088 130.611 46.5892 130.797 46.1026C130.968 45.6582 131.226 45.2554 131.554 44.9195C131.886 44.5877 132.278 44.3277 132.708 44.1548C133.647 43.7915 134.68 43.7915 135.619 44.1548C136.051 44.3269 136.446 44.5869 136.78 44.9195C137.111 45.255 137.371 45.6578 137.544 46.1026C137.732 46.5887 137.827 47.1083 137.822 47.632ZM136.78 47.632C136.781 47.2531 136.718 46.8769 136.592 46.521C136.48 46.1845 136.302 45.8752 136.071 45.612C135.843 45.3475 135.564 45.1361 135.251 44.9916C134.907 44.835 134.535 44.7563 134.16 44.7608C133.792 44.7563 133.426 44.8351 133.09 44.9916C132.777 45.1343 132.497 45.346 132.27 45.612C132.044 45.8791 131.867 46.1873 131.749 46.521C131.508 47.2431 131.508 48.0282 131.749 48.7502C131.865 49.0889 132.044 49.4003 132.277 49.6665C132.505 49.9265 132.781 50.1352 133.09 50.2797C133.428 50.4281 133.793 50.5018 134.16 50.4961C134.532 50.5011 134.901 50.4275 135.244 50.2797C135.557 50.1354 135.838 49.9268 136.071 49.6665C136.304 49.4018 136.482 49.0898 136.592 48.7502C136.719 48.3923 136.783 48.0135 136.78 47.632Z" fill="url(#paint15_linear)"/>
<path d="M144.64 49.5584L146.676 44.0684H148.17V51.2177H147.211V45.2371L144.924 51.2177H144.32L142.041 45.2371V51.2177H141.109V44.0684H142.603L144.64 49.5584Z" fill="url(#paint16_linear)"/>
<path d="M151.811 44.0688H153.896C154.237 44.064 154.578 44.1027 154.91 44.1842C155.19 44.2472 155.454 44.3674 155.688 44.5377C155.902 44.6968 156.072 44.9106 156.182 45.1581C156.308 45.4378 156.37 45.744 156.362 46.0527C156.369 46.3721 156.302 46.6885 156.168 46.9761C156.047 47.2249 155.868 47.4382 155.647 47.5965C155.406 47.7708 155.134 47.8934 154.848 47.9572C154.52 48.038 154.184 48.0767 153.847 48.0727H152.763V51.2181H151.797L151.811 44.0688ZM152.777 47.2286H153.798C154.015 47.2298 154.232 47.2081 154.444 47.1637C154.623 47.1253 154.794 47.0571 154.952 46.9617C155.093 46.8756 155.208 46.7507 155.285 46.6009C155.377 46.4385 155.43 46.2553 155.438 46.0671C155.444 45.8784 155.401 45.6915 155.313 45.526C155.232 45.3815 155.117 45.2601 154.98 45.1725C154.825 45.0789 154.656 45.0153 154.479 44.985C154.271 44.9463 154.059 44.927 153.847 44.9273H152.811L152.777 47.2286Z" fill="url(#paint17_linear)"/>
<path d="M160.504 50.3303H163.583V51.2177H159.545V44.0684H160.504V50.3303Z" fill="url(#paint18_linear)"/>
<path d="M167.426 50.3303H171.026V51.2177H166.46V44.0684H170.88V44.9413H167.405V47.1056H170.65V47.9641H167.405L167.426 50.3303Z" fill="url(#paint19_linear)"/>
<path d="M176.668 51.2177H175.702V44.9413H173.506V44.0684H178.885V44.9413H176.675L176.668 51.2177Z" fill="url(#paint20_linear)"/>
<path d="M23.1895 26.9854H9.72904L6.25447 34.9211H1.14685L16.699 0.234863L31.7022 34.9211H26.5112L23.1895 26.9854ZM21.2507 22.361L16.5878 11.2655L11.7234 22.361H21.2507Z" fill="url(#paint21_linear)"/>
<path d="M48.6856 21.6612V34.9138H43.9463V2.28368H49.318C51.3228 2.21628 53.3279 2.40773 55.2873 2.85361C56.6433 3.23441 57.8781 3.98114 58.8661 5.01789C59.756 5.91538 60.4565 6.99515 60.923 8.18864C61.3896 9.38214 61.612 10.6633 61.5763 11.9508C61.6351 13.2841 61.406 14.6141 60.9058 15.8436C60.4057 17.0731 59.647 18.171 58.6854 19.0569C56.7605 20.8027 54.1546 21.6756 50.8885 21.6756L48.6856 21.6612ZM48.6856 17.0946H50.4576C54.8124 17.0946 56.9921 15.3559 56.9968 11.8786C56.9968 8.51199 54.7499 6.82866 50.2561 6.82866H48.6856V17.0946Z" fill="url(#paint22_linear)"/>
<path d="M92.1459 6.90804H79.5471V14.7499H91.7776V19.3743H79.5471V30.275H92.1459V34.9066H74.8286V2.28369H92.2015L92.1459 6.90804Z" fill="url(#paint23_linear)"/>
<path d="M113.744 19.7567V15.5508C115.752 15.5508 117.107 15.3199 117.795 14.8293C118.413 14.4044 118.911 13.816 119.237 13.1249C119.563 12.4338 119.706 11.665 119.65 10.8976C119.672 10.2637 119.564 9.6323 119.333 9.04522C119.101 8.45815 118.752 7.92884 118.309 7.49242C117.845 7.04042 117.299 6.68996 116.702 6.46191C116.105 6.23385 115.47 6.13287 114.835 6.165C113.735 6.09068 112.648 6.44289 111.784 7.15335C110.955 8.11334 110.416 9.30493 110.234 10.5801H105.516C106.002 7.50685 107.005 5.25601 108.525 3.82758C110.044 2.39916 112.168 1.67773 114.897 1.6633C117.378 1.55918 119.799 2.47117 121.638 4.20272C122.496 5.02708 123.173 6.03376 123.623 7.15419C124.072 8.27461 124.284 9.48249 124.244 10.6956C124.294 12.0646 124.007 13.4243 123.408 14.6454C122.81 15.8665 121.921 16.9084 120.825 17.6718C123.433 19.2637 124.735 21.8488 124.73 25.4271C124.778 26.771 124.549 28.11 124.058 29.3543C123.566 30.5986 122.824 31.7193 121.881 32.6414C119.892 34.5325 117.265 35.5331 114.571 35.4261C110.781 35.4261 107.971 33.9832 106.141 31.0975C105.285 29.5549 104.79 27.8251 104.696 26.0475H109.282C109.436 27.4336 110.068 28.715 111.061 29.6547C112.105 30.5269 113.42 30.9733 114.758 30.9099C115.464 30.9318 116.166 30.8021 116.822 30.529C117.477 30.2559 118.071 29.8453 118.566 29.3228C119.067 28.7736 119.457 28.1267 119.715 27.4195C119.973 26.7124 120.092 25.9591 120.067 25.2034C120.067 23.0392 119.317 21.4448 117.809 20.5142C116.536 19.9132 115.138 19.6528 113.744 19.7567Z" fill="url(#paint24_linear)"/>
<path d="M153.388 1.13672L156.863 3.84207L149.351 14.4543C149.761 14.3965 150.102 14.3533 150.393 14.3244C150.685 14.2955 150.901 14.2883 151.088 14.2883C152.336 14.2802 153.571 14.5475 154.711 15.0723C155.852 15.5972 156.872 16.3677 157.704 17.3328C158.605 18.2838 159.315 19.4114 159.792 20.6499C160.269 21.8885 160.504 23.2132 160.484 24.547C160.471 27.4302 159.362 30.1914 157.398 32.2301C155.434 34.2688 152.775 35.4201 149.997 35.4333C147.198 35.4563 144.503 34.3251 142.506 32.2879C141.505 31.3441 140.707 30.1921 140.164 28.9068C139.62 27.6216 139.343 26.232 139.351 24.8284C139.351 22.2457 140.375 19.5115 142.423 16.6258L153.388 1.13672ZM155.835 24.8717C155.854 23.6418 155.52 22.4338 154.875 21.4019C154.23 20.37 153.304 19.561 152.214 19.078C151.124 18.595 149.921 18.4601 148.757 18.6903C147.593 18.9206 146.522 19.5056 145.679 20.3707C144.837 21.2359 144.262 22.3419 144.028 23.5477C143.794 24.7535 143.911 26.0043 144.365 27.1406C144.819 28.2769 145.588 29.2472 146.575 29.9275C147.562 30.6079 148.722 30.9675 149.907 30.9605C151.467 30.9568 152.963 30.3162 154.073 29.177C155.182 28.0377 155.815 26.4913 155.835 24.8717Z" fill="url(#paint25_linear)"/>
<path d="M172.867 18.3863C172.867 13.1872 174.025 9.03656 176.342 5.93442C178.426 3.13529 180.963 1.72852 183.93 1.72852C186.898 1.72852 189.434 3.13529 191.526 5.93442C193.842 9.03656 195 13.2569 195 18.5955C195 23.934 193.842 28.1472 191.526 31.2349C189.432 34.0388 186.907 35.4408 183.951 35.4408C180.998 35.4408 178.454 34.0412 176.342 31.2349C174.025 28.1375 172.867 23.8547 172.867 18.3863ZM177.53 18.3863C177.426 21.5016 178.045 24.5972 179.337 27.4113C180.546 29.7632 182.086 30.9391 183.958 30.9391C185.83 30.9391 187.37 29.7632 188.579 27.4113C189.788 24.624 190.414 21.6019 190.414 18.545C190.414 15.488 189.788 12.466 188.579 9.67863C187.365 7.34121 185.825 6.17251 183.958 6.17251C182.091 6.17251 180.558 7.34121 179.358 9.67863C178.055 12.384 177.427 15.3853 177.53 18.4079V18.3863Z" fill="url(#paint26_linear)"/>
<defs>
<linearGradient id="paint0_linear" x1="180.108" y1="47.575" x2="194.743" y2="47.575" gradientUnits="userSpaceOnUse">
<stop stop-color="#F5DF4D"/>
<stop offset="0.04" stop-color="#F5D640"/>
<stop offset="0.12" stop-color="#F5CA2D"/>
<stop offset="0.2" stop-color="#F5C222"/>
<stop offset="0.28" stop-color="#F5C01E"/>
<stop offset="0.67" stop-color="#787878"/>
<stop offset="0.89" stop-color="#656564"/>
<stop offset="1" stop-color="#505050"/>
</linearGradient>
<linearGradient id="paint1_linear" x1="995.857" y1="3262.56" x2="2614.51" y2="3262.56" gradientUnits="userSpaceOnUse">
<stop stop-color="#F5DF4D"/>
<stop offset="0.04" stop-color="#F5D640"/>
<stop offset="0.12" stop-color="#F5CA2D"/>
<stop offset="0.2" stop-color="#F5C222"/>
<stop offset="0.28" stop-color="#F5C01E"/>
<stop offset="0.67" stop-color="#787878"/>
<stop offset="0.89" stop-color="#656564"/>
<stop offset="1" stop-color="#505050"/>
</linearGradient>
<linearGradient id="paint2_linear" x1="732.03" y1="3262.56" x2="1907.12" y2="3262.56" gradientUnits="userSpaceOnUse">
<stop stop-color="#F5DF4D"/>
<stop offset="0.04" stop-color="#F5D640"/>
<stop offset="0.12" stop-color="#F5CA2D"/>
<stop offset="0.2" stop-color="#F5C222"/>
<stop offset="0.28" stop-color="#F5C01E"/>
<stop offset="0.67" stop-color="#787878"/>
<stop offset="0.89" stop-color="#656564"/>
<stop offset="1" stop-color="#505050"/>
</linearGradient>
<linearGradient id="paint3_linear" x1="939.019" y1="3262.56" x2="2437.84" y2="3262.56" gradientUnits="userSpaceOnUse">
<stop stop-color="#F5DF4D"/>
<stop offset="0.04" stop-color="#F5D640"/>
<stop offset="0.12" stop-color="#F5CA2D"/>
<stop offset="0.2" stop-color="#F5C222"/>
<stop offset="0.28" stop-color="#F5C01E"/>
<stop offset="0.67" stop-color="#787878"/>
<stop offset="0.89" stop-color="#656564"/>
<stop offset="1" stop-color="#505050"/>
</linearGradient>
<linearGradient id="paint4_linear" x1="989.619" y1="3262.56" x2="2555.36" y2="3262.56" gradientUnits="userSpaceOnUse">
<stop stop-color="#F5DF4D"/>
<stop offset="0.04" stop-color="#F5D640"/>
<stop offset="0.12" stop-color="#F5CA2D"/>
<stop offset="0.2" stop-color="#F5C222"/>
<stop offset="0.28" stop-color="#F5C01E"/>
<stop offset="0.67" stop-color="#787878"/>
<stop offset="0.89" stop-color="#656564"/>
<stop offset="1" stop-color="#505050"/>
</linearGradient>
<linearGradient id="paint5_linear" x1="1114.14" y1="3262.56" x2="2868.73" y2="3262.56" gradientUnits="userSpaceOnUse">
<stop stop-color="#F5DF4D"/>
<stop offset="0.04" stop-color="#F5D640"/>
<stop offset="0.12" stop-color="#F5CA2D"/>
<stop offset="0.2" stop-color="#F5C222"/>
<stop offset="0.28" stop-color="#F5C01E"/>
<stop offset="0.67" stop-color="#787878"/>
<stop offset="0.89" stop-color="#656564"/>
<stop offset="1" stop-color="#505050"/>
</linearGradient>
<linearGradient id="paint6_linear" x1="771.458" y1="3262.56" x2="1946.55" y2="3262.56" gradientUnits="userSpaceOnUse">
<stop stop-color="#F5DF4D"/>
<stop offset="0.04" stop-color="#F5D640"/>
<stop offset="0.12" stop-color="#F5CA2D"/>
<stop offset="0.2" stop-color="#F5C222"/>
<stop offset="0.28" stop-color="#F5C01E"/>
<stop offset="0.67" stop-color="#787878"/>
<stop offset="0.89" stop-color="#656564"/>
<stop offset="1" stop-color="#505050"/>
</linearGradient>
<linearGradient id="paint7_linear" x1="1140.3" y1="3262.56" x2="2896.67" y2="3262.56" gradientUnits="userSpaceOnUse">
<stop stop-color="#F5DF4D"/>
<stop offset="0.04" stop-color="#F5D640"/>
<stop offset="0.12" stop-color="#F5CA2D"/>
<stop offset="0.2" stop-color="#F5C222"/>
<stop offset="0.28" stop-color="#F5C01E"/>
<stop offset="0.67" stop-color="#787878"/>
<stop offset="0.89" stop-color="#656564"/>
<stop offset="1" stop-color="#505050"/>
</linearGradient>
<linearGradient id="paint8_linear" x1="708.689" y1="3262.56" x2="1747.85" y2="3262.56" gradientUnits="userSpaceOnUse">
<stop stop-color="#F5DF4D"/>
<stop offset="0.04" stop-color="#F5D640"/>
<stop offset="0.12" stop-color="#F5CA2D"/>
<stop offset="0.2" stop-color="#F5C222"/>
<stop offset="0.28" stop-color="#F5C01E"/>
<stop offset="0.67" stop-color="#787878"/>
<stop offset="0.89" stop-color="#656564"/>
<stop offset="1" stop-color="#505050"/>
</linearGradient>
<linearGradient id="paint9_linear" x1="923.303" y1="3344.06" x2="2300.5" y2="3344.06" gradientUnits="userSpaceOnUse">
<stop stop-color="#F5DF4D"/>
<stop offset="0.04" stop-color="#F5D640"/>
<stop offset="0.12" stop-color="#F5CA2D"/>
<stop offset="0.2" stop-color="#F5C222"/>
<stop offset="0.28" stop-color="#F5C01E"/>
<stop offset="0.67" stop-color="#787878"/>
<stop offset="0.89" stop-color="#656564"/>
<stop offset="1" stop-color="#505050"/>
</linearGradient>
<linearGradient id="paint10_linear" x1="1074.96" y1="3428.31" x2="2684.74" y2="3428.31" gradientUnits="userSpaceOnUse">
<stop stop-color="#F5DF4D"/>
<stop offset="0.04" stop-color="#F5D640"/>
<stop offset="0.12" stop-color="#F5CA2D"/>
<stop offset="0.2" stop-color="#F5C222"/>
<stop offset="0.28" stop-color="#F5C01E"/>
<stop offset="0.67" stop-color="#787878"/>
<stop offset="0.89" stop-color="#656564"/>
<stop offset="1" stop-color="#505050"/>
</linearGradient>
<linearGradient id="paint11_linear" x1="941.697" y1="3344.1" x2="2318.9" y2="3344.1" gradientUnits="userSpaceOnUse">
<stop stop-color="#F5DF4D"/>
<stop offset="0.04" stop-color="#F5D640"/>
<stop offset="0.12" stop-color="#F5CA2D"/>
<stop offset="0.2" stop-color="#F5C222"/>
<stop offset="0.28" stop-color="#F5C01E"/>
<stop offset="0.67" stop-color="#787878"/>
<stop offset="0.89" stop-color="#656564"/>
<stop offset="1" stop-color="#505050"/>
</linearGradient>
<linearGradient id="paint12_linear" x1="822.98" y1="3262.56" x2="1992.71" y2="3262.56" gradientUnits="userSpaceOnUse">
<stop stop-color="#F5DF4D"/>
<stop offset="0.04" stop-color="#F5D640"/>
<stop offset="0.12" stop-color="#F5CA2D"/>
<stop offset="0.2" stop-color="#F5C222"/>
<stop offset="0.28" stop-color="#F5C01E"/>
<stop offset="0.67" stop-color="#787878"/>
<stop offset="0.89" stop-color="#656564"/>
<stop offset="1" stop-color="#505050"/>
</linearGradient>
<linearGradient id="paint13_linear" x1="750.426" y1="3262.56" x2="1789.58" y2="3262.56" gradientUnits="userSpaceOnUse">
<stop stop-color="#F5DF4D"/>
<stop offset="0.04" stop-color="#F5D640"/>
<stop offset="0.12" stop-color="#F5CA2D"/>
<stop offset="0.2" stop-color="#F5C222"/>
<stop offset="0.28" stop-color="#F5C01E"/>
<stop offset="0.67" stop-color="#787878"/>
<stop offset="0.89" stop-color="#656564"/>
<stop offset="1" stop-color="#505050"/>
</linearGradient>
<linearGradient id="paint14_linear" x1="1113.32" y1="3428.5" x2="2724.92" y2="3428.5" gradientUnits="userSpaceOnUse">
<stop stop-color="#F5DF4D"/>
<stop offset="0.04" stop-color="#F5D640"/>
<stop offset="0.12" stop-color="#F5CA2D"/>
<stop offset="0.2" stop-color="#F5C222"/>
<stop offset="0.28" stop-color="#F5C01E"/>
<stop offset="0.67" stop-color="#787878"/>
<stop offset="0.89" stop-color="#656564"/>
<stop offset="1" stop-color="#505050"/>
</linearGradient>
<linearGradient id="paint15_linear" x1="1286.02" y1="3427.28" x2="3164.14" y2="3427.28" gradientUnits="userSpaceOnUse">
<stop stop-color="#F5DF4D"/>
<stop offset="0.04" stop-color="#F5D640"/>
<stop offset="0.12" stop-color="#F5CA2D"/>
<stop offset="0.2" stop-color="#F5C222"/>
<stop offset="0.28" stop-color="#F5C01E"/>
<stop offset="0.67" stop-color="#787878"/>
<stop offset="0.89" stop-color="#656564"/>
<stop offset="1" stop-color="#505050"/>
</linearGradient>
<linearGradient id="paint16_linear" x1="1259.11" y1="3262.56" x2="3076.3" y2="3262.56" gradientUnits="userSpaceOnUse">
<stop stop-color="#F5DF4D"/>
<stop offset="0.04" stop-color="#F5D640"/>
<stop offset="0.12" stop-color="#F5CA2D"/>
<stop offset="0.2" stop-color="#F5C222"/>
<stop offset="0.28" stop-color="#F5C01E"/>
<stop offset="0.67" stop-color="#787878"/>
<stop offset="0.89" stop-color="#656564"/>
<stop offset="1" stop-color="#505050"/>
</linearGradient>
<linearGradient id="paint17_linear" x1="874.843" y1="3262.74" x2="2050.07" y2="3262.74" gradientUnits="userSpaceOnUse">
<stop stop-color="#F5DF4D"/>
<stop offset="0.04" stop-color="#F5D640"/>
<stop offset="0.12" stop-color="#F5CA2D"/>
<stop offset="0.2" stop-color="#F5C222"/>
<stop offset="0.28" stop-color="#F5C01E"/>
<stop offset="0.67" stop-color="#787878"/>
<stop offset="0.89" stop-color="#656564"/>
<stop offset="1" stop-color="#505050"/>
</linearGradient>
<linearGradient id="paint18_linear" x1="798.875" y1="3262.56" x2="1838.03" y2="3262.56" gradientUnits="userSpaceOnUse">
<stop stop-color="#F5DF4D"/>
<stop offset="0.04" stop-color="#F5D640"/>
<stop offset="0.12" stop-color="#F5CA2D"/>
<stop offset="0.2" stop-color="#F5C222"/>
<stop offset="0.28" stop-color="#F5C01E"/>
<stop offset="0.67" stop-color="#787878"/>
<stop offset="0.89" stop-color="#656564"/>
<stop offset="1" stop-color="#505050"/>
</linearGradient>
<linearGradient id="paint19_linear" x1="889.421" y1="3262.56" x2="2064.51" y2="3262.56" gradientUnits="userSpaceOnUse">
<stop stop-color="#F5DF4D"/>
<stop offset="0.04" stop-color="#F5D640"/>
<stop offset="0.12" stop-color="#F5CA2D"/>
<stop offset="0.2" stop-color="#F5C222"/>
<stop offset="0.28" stop-color="#F5C01E"/>
<stop offset="0.67" stop-color="#787878"/>
<stop offset="0.89" stop-color="#656564"/>
<stop offset="1" stop-color="#505050"/>
</linearGradient>
<linearGradient id="paint20_linear" x1="1025.21" y1="3262.56" x2="2409.56" y2="3262.56" gradientUnits="userSpaceOnUse">
<stop stop-color="#F5DF4D"/>
<stop offset="0.04" stop-color="#F5D640"/>
<stop offset="0.12" stop-color="#F5CA2D"/>
<stop offset="0.2" stop-color="#F5C222"/>
<stop offset="0.28" stop-color="#F5C01E"/>
<stop offset="0.67" stop-color="#787878"/>
<stop offset="0.89" stop-color="#656564"/>
<stop offset="1" stop-color="#505050"/>
</linearGradient>
<linearGradient id="paint21_linear" x1="1.11905" y1="17.8377" x2="195.056" y2="17.8377" gradientUnits="userSpaceOnUse">
<stop stop-color="#F5DF4D"/>
<stop offset="0.06" stop-color="#F5D640"/>
<stop offset="0.17" stop-color="#F5CA2D"/>
<stop offset="0.28" stop-color="#F5C222"/>
<stop offset="0.41" stop-color="#F5C01E"/>
<stop offset="0.71" stop-color="#787878"/>
<stop offset="0.89" stop-color="#656564"/>
<stop offset="1" stop-color="#505050"/>
</linearGradient>
<linearGradient id="paint22_linear" x1="1.11875" y1="17.8376" x2="195.055" y2="17.8376" gradientUnits="userSpaceOnUse">
<stop stop-color="#F5DF4D"/>
<stop offset="0.06" stop-color="#F5D640"/>
<stop offset="0.17" stop-color="#F5CA2D"/>
<stop offset="0.28" stop-color="#F5C222"/>
<stop offset="0.41" stop-color="#F5C01E"/>
<stop offset="0.71" stop-color="#787878"/>
<stop offset="0.89" stop-color="#656564"/>
<stop offset="1" stop-color="#505050"/>
</linearGradient>
<linearGradient id="paint23_linear" x1="1.11908" y1="17.8377" x2="195.056" y2="17.8377" gradientUnits="userSpaceOnUse">
<stop stop-color="#F5DF4D"/>
<stop offset="0.06" stop-color="#F5D640"/>
<stop offset="0.17" stop-color="#F5CA2D"/>
<stop offset="0.28" stop-color="#F5C222"/>
<stop offset="0.41" stop-color="#F5C01E"/>
<stop offset="0.71" stop-color="#787878"/>
<stop offset="0.89" stop-color="#656564"/>
<stop offset="1" stop-color="#505050"/>
</linearGradient>
<linearGradient id="paint24_linear" x1="1.11891" y1="17.8377" x2="195.055" y2="17.8377" gradientUnits="userSpaceOnUse">
<stop stop-color="#F5DF4D"/>
<stop offset="0.06" stop-color="#F5D640"/>
<stop offset="0.17" stop-color="#F5CA2D"/>
<stop offset="0.28" stop-color="#F5C222"/>
<stop offset="0.41" stop-color="#F5C01E"/>
<stop offset="0.71" stop-color="#787878"/>
<stop offset="0.89" stop-color="#656564"/>
<stop offset="1" stop-color="#505050"/>
</linearGradient>
<linearGradient id="paint25_linear" x1="1.11893" y1="17.8378" x2="195.056" y2="17.8378" gradientUnits="userSpaceOnUse">
<stop stop-color="#F5DF4D"/>
<stop offset="0.06" stop-color="#F5D640"/>
<stop offset="0.17" stop-color="#F5CA2D"/>
<stop offset="0.28" stop-color="#F5C222"/>
<stop offset="0.41" stop-color="#F5C01E"/>
<stop offset="0.71" stop-color="#787878"/>
<stop offset="0.89" stop-color="#656564"/>
<stop offset="1" stop-color="#505050"/>
</linearGradient>
<linearGradient id="paint26_linear" x1="1.11917" y1="17.838" x2="195.056" y2="17.838" gradientUnits="userSpaceOnUse">
<stop stop-color="#F5DF4D"/>
<stop offset="0.06" stop-color="#F5D640"/>
<stop offset="0.17" stop-color="#F5CA2D"/>
<stop offset="0.28" stop-color="#F5C222"/>
<stop offset="0.41" stop-color="#F5C01E"/>
<stop offset="0.71" stop-color="#787878"/>
<stop offset="0.89" stop-color="#656564"/>
<stop offset="1" stop-color="#505050"/>
</linearGradient>
</defs>
</svg>
