<svg xmlns="http://www.w3.org/2000/svg" width="33" height="38" viewBox="0 0 33 38" fill="none"><path d="M30.9375 38H2.0625C0.923412 38 0 37.0846 0 35.9555V16.2402C0.0319505 15.7392 0.246756 15.2668 0.604312 14.9113L15.0418 0.59963C15.4287 0.215716 15.9536 0 16.501 0C17.0484 0 17.5734 0.215716 17.9602 0.59963L32.3977 14.9113C32.785 15.2942 33.0018 15.8146 33 16.3567V35.9555C33 37.0846 32.0766 38 30.9375 38ZM16.5 4.93605L4.125 17.2032V33.911H28.875V17.2032L16.5 4.93605ZM13.4062 30.9648L7.82512 25.4446L10.725 22.5455L13.4062 25.187L22.275 16.4119L25.1872 19.307L13.4062 30.9628V30.9648Z" fill="#EFDD59"></path></svg>