<svg xmlns="http://www.w3.org/2000/svg" width="60" height="60" viewBox="0 0 60 60" fill="none"><path d="M45 60H3.75C1.67893 60 0 58.2736 0 56.1441V25.8366C0 24.8366 0.377837 23.8757 1.05375 23.1567L21.6788 1.17801C22.3854 0.425197 23.3593 0 24.3769 0C25.3944 0 26.3683 0.425197 27.075 1.17801L37.575 12.3602L32.2125 17.7662L24.375 9.41039L7.5 27.379V52.2689H48.75V56.1248C48.755 57.1508 48.3621 58.1365 47.6583 58.8638C46.9545 59.5911 45.9978 60 45 60ZM38.58 44.5763L28.4325 34.1654L33.75 28.6977L38.595 33.6757L54.72 17.1261L60 22.5899L38.58 44.5686V44.5763Z" fill="#EFDD59"></path></svg>