<svg xmlns="http://www.w3.org/2000/svg" width="31" height="31" viewBox="0 0 31 31" fill="none"><path d="M21.9584 2.58337H9.04171C5.47487 2.58337 2.58337 5.47487 2.58337 9.04171V21.9584C2.58337 25.5252 5.47487 28.4167 9.04171 28.4167H21.9584C25.5252 28.4167 28.4167 25.5252 28.4167 21.9584V9.04171C28.4167 5.47487 25.5252 2.58337 21.9584 2.58337Z" stroke="#555555" stroke-width="2" stroke-linecap="round" stroke-linejoin="round"></path><path d="M20.6666 14.6863C20.826 15.7613 20.6424 16.8591 20.1419 17.8237C19.6414 18.7884 18.8494 19.5706 17.8787 20.0592C16.908 20.5478 15.8079 20.7178 14.735 20.5452C13.6621 20.3725 12.6709 19.866 11.9024 19.0975C11.134 18.3291 10.6274 17.3379 10.4548 16.265C10.2821 15.192 10.4522 14.092 10.9408 13.1213C11.4294 12.1505 12.2116 11.3586 13.1762 10.8581C14.1408 10.3576 15.2387 10.1739 16.3137 10.3334C17.4102 10.496 18.4254 11.0069 19.2092 11.7908C19.9931 12.5746 20.504 13.5897 20.6666 14.6863Z" stroke="#555555" stroke-width="2" stroke-linecap="round" stroke-linejoin="round"></path><path d="M22.6041 8.39587H22.6174" stroke="#555555" stroke-width="2" stroke-linecap="round" stroke-linejoin="round"></path></svg>