<svg xmlns="http://www.w3.org/2000/svg" width="31" height="32" viewBox="0 0 31 32" fill="none"><path d="M20.6666 10.6666C22.7221 10.6666 24.6933 11.5095 26.1467 13.0098C27.6001 14.5101 28.4166 16.5449 28.4166 18.6666V28H23.25V18.6666C23.25 17.9594 22.9778 17.2811 22.4933 16.781C22.0089 16.2809 21.3518 16 20.6666 16C19.9815 16 19.3244 16.2809 18.8399 16.781C18.3555 17.2811 18.0833 17.9594 18.0833 18.6666V28H12.9166V18.6666C12.9166 16.5449 13.7331 14.5101 15.1865 13.0098C16.64 11.5095 18.6112 10.6666 20.6666 10.6666V10.6666Z" stroke="#555555" stroke-width="2" stroke-linecap="round" stroke-linejoin="round"></path><path d="M7.75004 12H2.58337V28H7.75004V12Z" stroke="#555555" stroke-width="2" stroke-linecap="round" stroke-linejoin="round"></path><path d="M5.16671 7.99996C6.59344 7.99996 7.75004 6.80605 7.75004 5.33329C7.75004 3.86053 6.59344 2.66663 5.16671 2.66663C3.73997 2.66663 2.58337 3.86053 2.58337 5.33329C2.58337 6.80605 3.73997 7.99996 5.16671 7.99996Z" stroke="#555555" stroke-width="2" stroke-linecap="round" stroke-linejoin="round"></path></svg>