<svg xmlns="http://www.w3.org/2000/svg" width="223" height="58" viewBox="0 0 223 58" fill="none"><path d="M214.586 57.1198C213.332 57.1872 212.075 57.1872 210.82 57.1198C209.509 56.9812 208.304 56.3374 207.46 55.3248C206.617 54.3122 206.201 53.0107 206.301 51.6964C206.399 50.396 206.988 49.1814 207.947 48.2983C208.907 47.4152 210.166 46.9294 211.47 46.9391C213.619 46.9391 215.768 46.9391 217.917 46.9391C219.188 46.9507 220.409 47.4337 221.344 48.2946C222.279 49.1555 222.862 50.3329 222.978 51.5987C223.095 52.8644 222.737 54.1283 221.975 55.1455C221.213 56.1626 220.1 56.8605 218.852 57.1039C218.489 57.171 218.12 57.2028 217.75 57.199C216.696 57.199 215.641 57.199 214.579 57.199L214.586 57.1198ZM217.845 55.4626C218.731 55.4291 219.57 55.0556 220.188 54.4197C220.806 53.7838 221.155 52.9344 221.164 52.0478C221.172 51.1612 220.838 50.3055 220.232 49.6583C219.626 49.0112 218.794 48.6223 217.909 48.5725C216.994 48.5682 216.114 48.926 215.462 49.5676C214.81 50.2093 214.438 51.0829 214.428 51.9977C214.423 52.4502 214.507 52.8992 214.676 53.3189C214.846 53.7385 215.096 54.1204 215.414 54.4426C215.732 54.7648 216.11 55.0208 216.528 55.1959C216.945 55.3709 217.393 55.4616 217.845 55.4626Z" fill="white"></path><path d="M3.60763 54.614L5.98629 48.1758H7.17562L4.08337 56.0333H3.06054L0 48.1758H1.22105L3.60763 54.614Z" fill="white"></path><path d="M11.4493 55.058H15.5564V56.0333H10.3472V48.1758H15.3899V49.1352H11.4255V51.5138H15.1283V52.4574H11.4255L11.4493 55.058Z" fill="white"></path><path d="M24.7458 54.4554V48.1758H25.8479V56.0333H24.4603L20.3056 49.6188V56.0333H19.2114V48.1758H20.6386L24.7458 54.4554Z" fill="white"></path><path d="M30.0264 48.1758H32.7222C33.2351 48.1756 33.7453 48.2504 34.2366 48.3978C34.7322 48.5395 35.1955 48.7765 35.6004 49.0955C36.0167 49.4245 36.3551 49.8415 36.5915 50.3166C36.8525 50.8742 36.9801 51.485 36.9641 52.1006C36.9781 52.7057 36.8505 53.3058 36.5915 53.8528C36.3509 54.3252 36.0131 54.7413 35.6004 55.0739C35.1926 55.3941 34.7307 55.6385 34.2366 55.7954C33.7469 55.9517 33.2362 56.0319 32.7222 56.0333H30.0264V48.1758ZM31.1285 55.066H32.5002C32.9467 55.0715 33.3912 55.0045 33.8164 54.8677C34.2 54.7457 34.5557 54.549 34.863 54.2889C35.1595 54.034 35.3929 53.7137 35.5448 53.3533C35.7158 52.9582 35.7996 52.5309 35.7906 52.1006C35.8012 51.6598 35.7174 51.2218 35.5448 50.8161C35.3947 50.4569 35.1609 50.1389 34.863 49.8884C34.5533 49.6337 34.1982 49.44 33.8164 49.3175C33.3899 49.1872 32.946 49.123 32.5002 49.1272H31.1285V55.066Z" fill="white"></path><path d="M40.7543 56.0333H39.5332L42.9347 48.1758H43.9337L47.3114 56.0333H46.0666L45.2737 54.0986H41.5392L40.7543 56.0333ZM41.9277 53.1313H44.8693L43.4025 49.4523L41.9277 53.1313Z" fill="white"></path><path d="M56.4615 55.058H60.5686V56.0333H55.3594V48.1758H60.4021V49.1352H56.4377V51.5138H60.1405V52.4574H56.4615V55.058Z" fill="white"></path><path d="M69.3456 56.0333H68.1245L71.5339 48.1758H72.533L75.9027 56.0333H74.6975L73.9046 54.0986H70.1781L69.3456 56.0333ZM70.527 53.1313H73.4686L72.0017 49.4523L70.527 53.1313Z" fill="white"></path><path d="M80.2482 55.058H83.7528V56.0333H79.1382V48.1758H80.2482V55.058Z" fill="white"></path><path d="M89.7627 56.2315C89.2972 56.2429 88.8347 56.1536 88.4069 55.9698C88.0426 55.8131 87.7176 55.5775 87.4554 55.28C87.2016 54.9889 87.01 54.6489 86.8925 54.281C86.7684 53.9078 86.7068 53.5167 86.7101 53.1234V48.1758H87.8043V53.06C87.8073 53.3274 87.8419 53.5935 87.9074 53.8528C87.9696 54.1067 88.08 54.3462 88.2324 54.5585C88.3916 54.7697 88.598 54.9408 88.835 55.058C89.1266 55.1877 89.4437 55.25 89.7627 55.2404C90.0789 55.2475 90.3929 55.1853 90.6825 55.058C90.9208 54.9428 91.1276 54.7714 91.2851 54.5585C91.4368 54.3448 91.5496 54.1059 91.6181 53.8528C91.6809 53.5932 91.7129 53.3271 91.7132 53.06V48.1758H92.8153V53.1234C92.8148 53.5164 92.7533 53.9069 92.6329 54.281C92.5123 54.6475 92.321 54.9869 92.07 55.28C91.8046 55.574 91.4805 55.809 91.1185 55.9698C90.6902 56.1522 90.2281 56.2414 89.7627 56.2315Z" fill="white"></path><path d="M102.813 49.7933C102.562 49.5224 102.253 49.3112 101.91 49.1749C101.521 49.0118 101.102 48.9308 100.681 48.937C100.252 48.9322 99.8279 49.0187 99.4357 49.1908C99.0782 49.3476 98.7589 49.5803 98.5001 49.8726C98.2366 50.1636 98.0319 50.5028 97.8975 50.8717C97.6124 51.6635 97.6124 52.5299 97.8975 53.3217C98.0242 53.6954 98.2236 54.0403 98.4843 54.3366C98.7483 54.6281 99.0731 54.8582 99.4357 55.0105C99.8358 55.1736 100.264 55.2545 100.696 55.2484C101.04 55.2512 101.382 55.2193 101.719 55.1533C101.995 55.0913 102.262 54.9926 102.512 54.8599V52.6715H100.768V51.7359H103.598V55.5418C103.169 55.7685 102.714 55.9416 102.243 56.0572C101.722 56.1736 101.19 56.2321 100.657 56.2316C100.079 56.2378 99.5058 56.1328 98.9679 55.9224C98.4718 55.7359 98.0206 55.4468 97.6438 55.074C97.2678 54.6982 96.9712 54.2505 96.7716 53.7578C96.5605 53.2283 96.4555 52.6626 96.4624 52.0927C96.4536 51.5168 96.5614 50.9449 96.7796 50.4118C96.9775 49.9209 97.2775 49.4776 97.6597 49.1115C98.0414 48.7469 98.4914 48.4613 98.9838 48.271C99.515 48.067 100.08 47.9648 100.649 47.9697C101.221 47.9617 101.79 48.0557 102.33 48.2472C102.784 48.4128 103.202 48.6661 103.559 48.9925L102.813 49.7933Z" fill="white"></path><path d="M110.742 56.2315C110.277 56.2429 109.814 56.1536 109.386 55.9698C109.022 55.8131 108.697 55.5775 108.435 55.28C108.181 54.9889 107.989 54.6489 107.872 54.281C107.748 53.9078 107.686 53.5167 107.69 53.1234V48.1758H108.792V53.06C108.795 53.3274 108.829 53.5935 108.895 53.8528C108.957 54.1067 109.067 54.3462 109.22 54.5585C109.377 54.7714 109.584 54.9428 109.822 55.058C110.114 55.1877 110.431 55.25 110.75 55.2404C111.066 55.2475 111.38 55.1853 111.67 55.058C111.908 54.9428 112.115 54.7714 112.272 54.5585C112.424 54.3448 112.537 54.1059 112.605 53.8528C112.668 53.5932 112.7 53.3271 112.701 53.06V48.1758H113.803V53.1234C113.802 53.5164 113.741 53.9069 113.62 54.281C113.5 54.6475 113.308 54.9869 113.057 55.28C112.792 55.574 112.468 55.809 112.106 55.9698C111.675 56.1533 111.21 56.2425 110.742 56.2315Z" fill="white"></path><path d="M118.965 55.058H123.064V56.0333H117.854V48.1758H122.897V49.1352H118.933V51.5138H122.644V52.4574H118.933L118.965 55.058Z" fill="white"></path><path d="M127.861 55.058H131.365V56.0333H126.759V48.1758H127.861V55.058Z" fill="white"></path><path d="M146.113 54.812C145.794 55.2397 145.382 55.5894 144.908 55.8348C144.352 56.1111 143.736 56.2472 143.116 56.2312C142.549 56.2367 141.986 56.1317 141.459 55.922C140.968 55.7336 140.522 55.4446 140.15 55.0736C139.781 54.6937 139.488 54.247 139.286 53.7574C139.075 53.228 138.97 52.6623 138.977 52.0924C138.972 51.5167 139.08 50.9457 139.294 50.4114C139.495 49.9221 139.794 49.4794 140.174 49.1111C140.556 48.7466 141.006 48.461 141.498 48.2707C142.03 48.0674 142.594 47.9652 143.163 47.9694C143.429 47.9731 143.695 47.9996 143.956 48.0487C144.228 48.099 144.494 48.1787 144.749 48.2865C144.99 48.3864 145.219 48.5141 145.431 48.6671C145.637 48.8119 145.819 48.9885 145.97 49.1904L145.098 49.8564C144.89 49.5771 144.618 49.3515 144.305 49.1983C143.95 49.0243 143.559 48.9348 143.163 48.9367C142.738 48.931 142.316 49.0175 141.926 49.1904C141.569 49.3473 141.25 49.5799 140.991 49.8723C140.727 50.1632 140.523 50.5025 140.388 50.8713C140.245 51.2624 140.172 51.6759 140.174 52.0924C140.172 52.516 140.242 52.9368 140.38 53.3372C140.512 53.7057 140.714 54.045 140.975 54.3362C141.233 54.6237 141.549 54.8534 141.903 55.0102C142.291 55.176 142.709 55.2597 143.132 55.256C143.549 55.2636 143.962 55.1711 144.337 54.9864C144.703 54.8066 145.015 54.5331 145.241 54.1935L146.113 54.812Z" fill="white"></path><path d="M157.253 52.0928C157.257 52.6633 157.149 53.229 156.936 53.7579C156.734 54.2494 156.438 54.6966 156.063 55.0741C155.697 55.4407 155.26 55.7293 154.779 55.9224C153.71 56.3349 152.526 56.3349 151.457 55.9224C150.965 55.7321 150.517 55.4434 150.141 55.0741C149.766 54.6983 149.472 54.2506 149.276 53.7579C149.065 53.2284 148.96 52.6627 148.967 52.0928C148.96 51.5177 149.065 50.9466 149.276 50.4119C149.469 49.9219 149.763 49.4786 150.141 49.1116C150.519 48.7469 150.967 48.4612 151.457 48.2711C152.528 47.8719 153.708 47.8719 154.779 48.2711C155.272 48.4603 155.722 48.746 156.103 49.1116C156.48 49.4803 156.777 49.923 156.975 50.4119C157.176 50.9488 157.27 51.5198 157.253 52.0928ZM156.063 52.0928C156.065 51.6763 155.993 51.2628 155.849 50.8718C155.718 50.5033 155.516 50.164 155.255 49.8727C154.993 49.58 154.671 49.3474 154.311 49.1909C153.922 49.018 153.5 48.9314 153.074 48.9371C152.654 48.9322 152.237 49.0188 151.853 49.1909C151.495 49.3457 151.175 49.5786 150.918 49.8727C150.66 50.1662 150.458 50.505 150.323 50.8718C150.048 51.6653 150.048 52.5282 150.323 53.3218C150.455 53.694 150.66 54.0362 150.926 54.3287C151.185 54.6145 151.501 54.8439 151.853 55.0027C152.239 55.1658 152.655 55.2469 153.074 55.2406C153.498 55.2461 153.919 55.1651 154.311 55.0027C154.668 54.8442 154.989 54.6149 155.255 54.3287C155.518 54.0358 155.72 53.6935 155.849 53.3218C155.994 52.9284 156.067 52.512 156.063 52.0928Z" fill="white"></path><path d="M165.031 54.2096L167.354 48.1758H169.051V56.0333H167.949V49.4603L165.34 56.0333H164.635L162.042 49.4603V56.0333H160.979V48.1758H162.708L165.031 54.2096Z" fill="white"></path><path d="M173.214 48.1757H175.592C175.982 48.1705 176.371 48.2131 176.75 48.3026C177.069 48.3719 177.371 48.5039 177.638 48.6911C177.879 48.8683 178.073 49.1026 178.201 49.373C178.342 49.681 178.41 50.0175 178.399 50.3562C178.409 50.7066 178.335 51.0543 178.185 51.3711C178.047 51.6445 177.842 51.8789 177.59 52.0529C177.315 52.2432 177.005 52.3779 176.679 52.4494C176.304 52.5376 175.921 52.5802 175.537 52.5762H174.3V56.0332H173.198L173.214 48.1757ZM174.316 51.6486H175.473C175.724 51.6503 175.973 51.6264 176.219 51.5772C176.422 51.5351 176.618 51.4601 176.797 51.3552C176.958 51.2606 177.09 51.1234 177.178 50.9587C177.272 50.7719 177.318 50.565 177.313 50.3562C177.319 50.1487 177.27 49.9433 177.17 49.7615C177.075 49.6043 176.945 49.4713 176.79 49.373C176.613 49.27 176.42 49.2002 176.219 49.1668C175.98 49.1243 175.739 49.1031 175.497 49.1034H174.316V51.6486Z" fill="white"></path><path d="M183.133 55.058H186.645V56.0333H182.039V48.1758H183.133V55.058Z" fill="white"></path><path d="M191.03 55.058H195.137V56.0333H189.928V48.1758H194.971V49.1352H191.007V51.5138H194.709V52.4574H191.007L191.03 55.058Z" fill="white"></path><path d="M201.56 56.0333H200.457V49.1352H197.936V48.1758H204.081V49.1352H201.56V56.0333Z" fill="white"></path><path d="M26.4584 29.4002H11.1002L7.1358 38.122H1.27637L19.0212 0L36.1396 38.122H30.2167L26.4584 29.4002ZM24.2463 24.3178L18.926 12.1232L13.3758 24.3178H24.2463Z" fill="white"></path><path d="M55.5494 23.5487V38.114H50.1182V2.25178H56.2472C58.5346 2.17771 60.8225 2.38812 63.0581 2.87817C64.6053 3.29669 66.0142 4.11738 67.1414 5.25683C68.1568 6.24321 68.956 7.42993 69.4884 8.74165C70.0207 10.0534 70.2745 11.4614 70.2337 12.8765C70.3008 14.3418 70.0394 15.8036 69.4687 17.1549C68.898 18.5062 68.0324 19.7128 66.9353 20.6864C64.7311 22.6052 61.7657 23.5646 58.0391 23.5646L55.5494 23.5487ZM55.5494 18.5297H57.5713C62.54 18.5297 65.0271 16.6189 65.0324 12.7972C65.0324 9.09702 62.4687 7.24695 57.3414 7.24695H55.5494V18.5297Z" fill="white"></path><path d="M105.137 7.33436H90.7616V15.953H104.716V21.0354H90.7616V33.0159H105.137V38.1063H85.3145V2.25195H105.137V7.33436Z" fill="white"></path><path d="M129.772 21.4554V16.8329C132.063 16.8329 133.609 16.5792 134.394 16.04C135.099 15.573 135.667 14.9263 136.039 14.1668C136.411 13.4073 136.574 12.5622 136.511 11.7188C136.537 11.0214 136.412 10.3266 136.147 9.68109C135.882 9.03561 135.481 8.45436 134.973 7.97637C134.449 7.48375 133.832 7.10091 133.158 6.85036C132.484 6.59981 131.767 6.48662 131.048 6.51746C129.793 6.43425 128.552 6.82151 127.567 7.60371C126.622 8.65879 126.007 9.96841 125.799 11.3699H120.416C120.971 7.99223 122.115 5.51843 123.849 3.94852C125.583 2.3786 128.006 1.58572 131.12 1.56986C133.95 1.45542 136.712 2.45775 138.811 4.36081C139.79 5.26683 140.562 6.37322 141.075 7.60463C141.588 8.83604 141.83 10.1636 141.784 11.4968C141.842 13.0014 141.514 14.4959 140.831 15.8379C140.148 17.18 139.133 18.325 137.883 19.164C140.859 20.9136 142.344 23.7548 142.339 27.6875C142.392 29.1643 142.13 30.6355 141.569 32.0028C141.009 33.3701 140.163 34.6021 139.088 35.6164C136.819 37.6949 133.822 38.7946 130.747 38.6769C126.423 38.6769 123.217 37.0911 121.129 33.9196C120.152 32.2242 119.588 30.3231 119.48 28.3694H124.713C124.888 29.8928 125.609 31.3011 126.743 32.3338C127.934 33.2924 129.434 33.7831 130.961 33.7134C131.765 33.7383 132.566 33.5961 133.312 33.2959C134.059 32.9956 134.735 32.5439 135.298 31.9691C135.872 31.3672 136.32 30.6566 136.615 29.8791C136.911 29.1017 137.048 28.2729 137.019 27.4417C137.019 25.0631 136.162 23.3108 134.442 22.288C132.98 21.6223 131.374 21.3359 129.772 21.4554Z" fill="white"></path><path d="M175.014 0.991211L178.978 3.96453L170.407 15.6279L171.588 15.4852C171.914 15.4852 172.175 15.4455 172.381 15.4455C173.805 15.4366 175.214 15.7303 176.515 16.3072C177.816 16.884 178.98 17.7309 179.93 18.7915C180.958 19.8367 181.768 21.076 182.312 22.4373C182.856 23.7985 183.125 25.2545 183.101 26.7204C183.087 29.8891 181.821 32.9239 179.581 35.1645C177.34 37.4052 174.305 38.6704 171.136 38.685C167.942 38.7103 164.868 37.467 162.589 35.228C161.447 34.1907 160.537 32.9246 159.916 31.5121C159.296 30.0995 158.98 28.5722 158.989 27.0296C158.989 24.1911 160.158 21.186 162.494 18.0145L175.014 0.991211ZM177.805 27.0772C177.827 25.7255 177.445 24.3979 176.71 23.2637C175.974 22.1296 174.917 21.2404 173.674 20.7096C172.43 20.1788 171.057 20.0305 169.729 20.2835C168.401 20.5366 167.179 21.1796 166.218 22.1304C165.257 23.0812 164.601 24.2968 164.334 25.6221C164.067 26.9473 164.2 28.322 164.718 29.5709C165.236 30.8197 166.113 31.8861 167.24 32.6338C168.366 33.3816 169.689 33.7768 171.041 33.7691C172.822 33.7651 174.529 33.061 175.794 31.8089C177.06 30.5568 177.782 28.8572 177.805 27.0772Z" fill="white"></path><path d="M197.238 19.9489C197.238 14.2348 198.56 9.67304 201.203 6.26363C203.581 3.18723 206.475 1.64111 209.861 1.64111C213.247 1.64111 216.141 3.18723 218.527 6.26363C221.17 9.67304 222.492 14.3114 222.492 20.1788C222.492 26.0462 221.17 30.6766 218.527 34.0702C216.143 37.1518 213.263 38.6927 209.885 38.6927C206.507 38.6927 203.6 37.1518 201.163 34.0702C198.547 30.666 197.238 25.9589 197.238 19.9489ZM202.559 19.9489C202.435 23.3731 203.143 26.7763 204.62 29.8679C206 32.4527 207.757 33.7451 209.893 33.7451C212.028 33.7451 213.786 32.4527 215.165 29.8679C216.545 26.8045 217.258 23.483 217.258 20.1233C217.258 16.7636 216.545 13.4421 215.165 10.3787C213.781 7.80976 212.023 6.5253 209.893 6.5253C207.763 6.5253 206.013 7.80976 204.644 10.3787C203.155 13.3512 202.438 16.6504 202.559 19.9726V19.9489Z" fill="white"></path></svg>