<svg xmlns="http://www.w3.org/2000/svg" width="61" height="61" viewBox="0 0 61 61" fill="none"><path d="M16.9583 19.6666C15.4626 19.6666 14.25 20.8791 14.25 22.3749C14.25 23.8707 15.4626 25.0833 16.9583 25.0833H41.3333C42.8291 25.0833 44.0417 23.8707 44.0417 22.3749C44.0417 20.8791 42.8291 19.6666 41.3333 19.6666H16.9583Z" fill="#EFDD59"></path><path d="M14.25 33.2083C14.25 31.7125 15.4626 30.4999 16.9583 30.4999H41.3333C42.8291 30.4999 44.0417 31.7125 44.0417 33.2083C44.0417 34.704 42.8291 35.9166 41.3333 35.9166H16.9583C15.4626 35.9166 14.25 34.704 14.25 33.2083Z" fill="#EFDD59"></path><path d="M16.9583 41.3333C15.4626 41.3333 14.25 42.5458 14.25 44.0416C14.25 45.5374 15.4626 46.7499 16.9583 46.7499H30.5C31.9958 46.7499 33.2083 45.5374 33.2083 44.0416C33.2083 42.5458 31.9958 41.3333 30.5 41.3333H16.9583Z" fill="#EFDD59"></path><path fill-rule="evenodd" clip-rule="evenodd" d="M0.708344 30.4999V57.583C0.708344 59.0788 1.92112 60.2916 3.41689 60.2916H30.5C46.9535 60.2916 60.2917 46.9534 60.2917 30.4999C60.2917 14.0464 46.9535 0.708252 30.5 0.708252C14.0465 0.708252 0.708344 14.0464 0.708344 30.4999ZM6.12501 30.4999C6.12501 17.038 17.0381 6.12492 30.5 6.12492C43.962 6.12492 54.875 17.038 54.875 30.4999C54.875 43.9619 43.962 54.8749 30.5 54.8749H6.12501V30.4999Z" fill="#EFDD59"></path></svg>