<svg xmlns="http://www.w3.org/2000/svg" width="46" height="46" viewBox="0 0 46 46" fill="none"><path fill-rule="evenodd" clip-rule="evenodd" d="M0.083374 23C0.083374 10.3435 10.3435 0.083374 23 0.083374C35.6566 0.083374 45.9167 10.3435 45.9167 23C45.9167 35.6566 35.6566 45.9167 23 45.9167C10.3435 45.9167 0.083374 35.6566 0.083374 23ZM23 4.25004C12.6447 4.25004 4.25004 12.6447 4.25004 23C4.25004 33.3554 12.6447 41.75 23 41.75C33.3554 41.75 41.75 33.3554 41.75 23C41.75 12.6447 33.3554 4.25004 23 4.25004ZM15.7084 14.6667C16.859 14.6667 17.7917 15.5994 17.7917 16.75V20.9167C17.7917 22.0673 16.859 23 15.7084 23C14.5578 23 13.625 22.0673 13.625 20.9167V16.75C13.625 15.5994 14.5578 14.6667 15.7084 14.6667ZM26.125 18.8334C26.125 17.6828 27.0578 16.75 28.2084 16.75H32.375C33.5256 16.75 34.4584 17.6828 34.4584 18.8334C34.4584 19.984 33.5256 20.9167 32.375 20.9167H28.2084C27.0578 20.9167 26.125 19.984 26.125 18.8334Z" fill="#EFDD59"></path><path d="M15.9342 32.9022C17.4056 34.2101 19.7031 35.5117 22.9172 35.5117C26.1314 35.5117 28.4288 34.2101 29.9003 32.9022C30.7657 32.1329 31.5512 31.2345 32.0723 30.1934C32.5868 29.1643 32.1697 27.9129 31.1406 27.3983C30.117 26.8866 28.8735 27.2964 28.3539 28.3134C28.0526 28.8723 27.6026 29.3697 27.1321 29.788C26.2598 30.5634 24.9114 31.3451 22.9172 31.3451C20.923 31.3451 19.5746 30.5634 18.7023 29.788C18.2574 29.3925 17.937 28.9972 17.7325 28.7086C17.009 27.6872 16.0765 26.707 14.6938 27.3983C13.6647 27.9129 13.2476 29.1643 13.7622 30.1934C14.2834 31.2347 15.0685 32.1327 15.9342 32.9022Z" fill="#EFDD59"></path></svg>