<svg xmlns="http://www.w3.org/2000/svg" width="27" height="26" viewBox="0 0 27 26" fill="none"><path d="M26.1299 12.7937C26.1299 19.861 20.28 25.5873 13.065 25.5873C5.84989 25.5873 0 19.861 0 12.7937C0 5.73047 5.84989 0 13.065 0C20.28 0 26.1299 5.73047 26.1299 12.7937ZM13.4156 4.23016C10.5446 4.23016 8.71349 5.41445 7.27561 7.51926C7.08932 7.79195 7.15165 8.15972 7.41864 8.35797L9.24662 9.71523C9.52083 9.91885 9.91152 9.8704 10.1246 9.60576C11.0657 8.4369 11.711 7.75909 13.1434 7.75909C14.2196 7.75909 15.5508 8.43736 15.5508 9.45931C15.5508 10.2319 14.8995 10.6286 13.8369 11.212C12.5976 11.8923 10.9577 12.739 10.9577 14.8571V15.0635C10.9577 15.4054 11.2408 15.6825 11.5899 15.6825H14.54C14.8892 15.6825 15.1722 15.4054 15.1722 15.0635V14.9947C15.1722 13.5264 19.5546 13.4653 19.5546 9.49206C19.5546 6.4999 16.385 4.23016 13.4156 4.23016ZM13.065 17.0238C11.7287 17.0238 10.6416 18.0883 10.6416 19.3968C10.6416 20.7053 11.7287 21.7698 13.065 21.7698C14.4012 21.7698 15.4883 20.7053 15.4883 19.3968C15.4883 18.0883 14.4012 17.0238 13.065 17.0238Z" fill="#EFDD59"></path></svg>