<svg xmlns="http://www.w3.org/2000/svg" width="47" height="41" viewBox="0 0 47 41" fill="none"><path fill-rule="evenodd" clip-rule="evenodd" d="M0.125 2.4375C0.125 1.26389 1.07639 0.3125 2.25 0.3125H44.75C45.9236 0.3125 46.875 1.26389 46.875 2.4375V30.0625C46.875 31.2361 45.9236 32.1875 44.75 32.1875H25.625V36.4375H36.25C37.4236 36.4375 38.375 37.3889 38.375 38.5625C38.375 39.7361 37.4236 40.6875 36.25 40.6875H10.75C9.5764 40.6875 8.625 39.7361 8.625 38.5625C8.625 37.3889 9.5764 36.4375 10.75 36.4375H21.375V32.1875H2.25C1.07639 32.1875 0.125 31.2361 0.125 30.0625V2.4375ZM42.625 27.9375V4.5625H4.375V27.9375H42.625ZM32 7.75C33.1736 7.75 34.125 8.7014 34.125 9.875V22.625C34.125 23.7986 33.1736 24.75 32 24.75C30.8264 24.75 29.875 23.7986 29.875 22.625V9.875C29.875 8.7014 30.8264 7.75 32 7.75ZM23.5 12C24.6736 12 25.625 12.9514 25.625 14.125V22.625C25.625 23.7986 24.6736 24.75 23.5 24.75C22.3264 24.75 21.375 23.7986 21.375 22.625V14.125C21.375 12.9514 22.3264 12 23.5 12ZM15 16.25C16.1736 16.25 17.125 17.2014 17.125 18.375V22.625C17.125 23.7986 16.1736 24.75 15 24.75C13.8264 24.75 12.875 23.7986 12.875 22.625V18.375C12.875 17.2014 13.8264 16.25 15 16.25Z" fill="#EFDD59"></path></svg>