<svg xmlns="http://www.w3.org/2000/svg" width="50" height="56" viewBox="0 0 50 56" fill="none"><path fill-rule="evenodd" clip-rule="evenodd" d="M25 5.5C20.8579 5.5 17.5 8.85786 17.5 13C17.5 17.1421 20.8579 20.5 25 20.5C29.1421 20.5 32.5 17.1421 32.5 13C32.5 8.85786 29.1421 5.5 25 5.5ZM12.5 13C12.5 6.09644 18.0964 0.5 25 0.5C31.9036 0.5 37.5 6.09644 37.5 13C37.5 19.9036 31.9036 25.5 25 25.5C18.0964 25.5 12.5 19.9036 12.5 13ZM0 53C0 39.1929 11.1929 28 25 28C38.8071 28 50 39.1929 50 53C50 54.3807 48.8807 55.5 47.5 55.5C46.1193 55.5 45 54.3807 45 53C45 43.1405 37.8655 34.9473 28.4776 33.3013L32.3894 46.0148C32.6328 46.8056 32.4691 47.6656 31.9522 48.3117L26.9522 54.5617C26.4777 55.1548 25.7595 55.5 25 55.5C24.2405 55.5 23.5223 55.1548 23.0478 54.5617L18.0478 48.3117C17.5309 47.6656 17.3672 46.8056 17.6106 46.0148L21.5224 33.3013C12.1345 34.9473 5 43.1405 5 53C5 54.3807 3.88071 55.5 2.5 55.5C1.11929 55.5 0 54.3807 0 53ZM25 39.0009L22.7784 46.2211L25 48.998L27.2216 46.2211L25 39.0009Z" fill="#EFDD59"></path></svg>