<svg xmlns="http://www.w3.org/2000/svg" width="55" height="61" viewBox="0 0 55 61" fill="none"><path fill-rule="evenodd" clip-rule="evenodd" d="M27.5 6.12492C23.0127 6.12492 19.375 9.7626 19.375 14.2499C19.375 18.7372 23.0127 22.3749 27.5 22.3749C31.9873 22.3749 35.625 18.7372 35.625 14.2499C35.625 9.7626 31.9873 6.12492 27.5 6.12492ZM13.9584 14.2499C13.9584 6.77106 20.0212 0.708252 27.5 0.708252C34.9789 0.708252 41.0417 6.77106 41.0417 14.2499C41.0417 21.7288 34.9789 27.7916 27.5 27.7916C20.0212 27.7916 13.9584 21.7288 13.9584 14.2499ZM0.416687 57.5833C0.416687 42.6256 12.5423 30.4999 27.5 30.4999C42.4577 30.4999 54.5834 42.6256 54.5834 57.5833C54.5834 59.079 53.3708 60.2916 51.875 60.2916C50.3793 60.2916 49.1667 59.079 49.1667 57.5833C49.1667 45.6171 39.4662 35.9166 27.5 35.9166C15.5339 35.9166 5.83335 45.6171 5.83335 57.5833C5.83335 59.079 4.62079 60.2916 3.12502 60.2916C1.62925 60.2916 0.416687 59.079 0.416687 57.5833ZM37.5401 44.8348C38.5978 45.8925 38.5978 47.6073 37.5401 48.665L26.7068 59.4983C25.6491 60.556 23.9343 60.556 22.8766 59.4983L17.4599 54.0817C16.4023 53.024 16.4023 51.3092 17.4599 50.2515C18.5176 49.1938 20.2324 49.1938 21.2901 50.2515L24.7917 53.7531L33.7099 44.8348C34.7676 43.7772 36.4824 43.7772 37.5401 44.8348Z" fill="#EFDD59"></path></svg>