<svg xmlns="http://www.w3.org/2000/svg" width="44" height="54" viewBox="0 0 44 54" fill="none"><path fill-rule="evenodd" clip-rule="evenodd" d="M0 4.90909C0 2.19787 2.18883 0 4.88889 0H29.3333C29.9816 0 30.6034 0.258603 31.0618 0.71892L43.284 12.9916C43.7425 13.452 44 14.0763 44 14.7273V49.0909C44 51.8022 41.8112 54 39.1111 54H4.88889C2.18885 54 0 51.8022 0 49.0909V4.90909ZM28.3208 4.90909H4.88889V49.0909H39.1111V15.744L28.3208 4.90909ZM9.77778 22.0909C9.77778 20.7353 10.8722 19.6364 12.2222 19.6364H31.7778C33.1278 19.6364 34.2222 20.7353 34.2222 22.0909C34.2222 23.4465 33.1278 24.5455 31.7778 24.5455H12.2222C10.8722 24.5455 9.77778 23.4465 9.77778 22.0909ZM9.77778 31.9091C9.77778 30.5535 10.8722 29.4545 12.2222 29.4545H31.7778C33.1278 29.4545 34.2222 30.5535 34.2222 31.9091C34.2222 33.2647 33.1278 34.3636 31.7778 34.3636H12.2222C10.8722 34.3636 9.77778 33.2647 9.77778 31.9091Z" fill="#EFDD59"></path></svg>