<svg xmlns="http://www.w3.org/2000/svg" width="31" height="32" viewBox="0 0 31 32" fill="none"><path d="M29.1141 8.56004C28.9607 7.92725 28.6482 7.34747 28.2082 6.87925C27.7682 6.41103 27.2164 6.07095 26.6083 5.89337C24.3866 5.33337 15.5 5.33337 15.5 5.33337C15.5 5.33337 6.6133 5.33337 4.39163 5.94671C3.78358 6.12429 3.23169 6.46436 2.7917 6.93258C2.35172 7.4008 2.03923 7.98059 1.8858 8.61337C1.4792 10.9408 1.28031 13.3018 1.29163 15.6667C1.27714 18.0494 1.47604 20.4284 1.8858 22.7734C2.05495 23.3865 2.37444 23.9442 2.8134 24.3927C3.25236 24.8411 3.79594 25.1651 4.39163 25.3334C6.6133 25.9467 15.5 25.9467 15.5 25.9467C15.5 25.9467 24.3866 25.9467 26.6083 25.3334C27.2164 25.1558 27.7682 24.8157 28.2082 24.3475C28.6482 23.8793 28.9607 23.2995 29.1141 22.6667C29.5176 20.3568 29.7165 18.0138 29.7083 15.6667C29.7228 13.284 29.5239 10.905 29.1141 8.56004V8.56004Z" stroke="#555555" stroke-width="2" stroke-linecap="round" stroke-linejoin="round"></path><path d="M12.5938 20.0266L20.0208 15.6666L12.5938 11.3066V20.0266Z" stroke="#555555" stroke-width="2" stroke-linecap="round" stroke-linejoin="round"></path></svg>